<svg xmlns="http://www.w3.org/2000/svg" width="38" height="24" viewBox="0 0 38 24">
  <g fill="none">
    <path fill="#000" d="M35,0 L3,0 C1.3,0 -1.77635684e-15,1.3 -1.77635684e-15,3 L-1.77635684e-15,21 C-1.77635684e-15,22.7 1.4,24 3,24 L35,24 C36.7,24 38,22.7 38,21 L38,3 C38,1.3 36.6,0 35,0 Z" opacity=".07"/>
    <path fill="#FFF" d="M35,1 C36.1,1 37,1.9 37,3 L37,21 C37,22.1 36.1,23 35,23 L3,23 C1.9,23 1,22.1 1,21 L1,3 C1,1.9 1.9,1 3,1 L35,1"/>
    <path fill="#2D9E42" d="M9.34790666,18.1141174 C9.14895775,17.4811391 9.49425773,16.8011957 10.1191221,16.600087 C10.7438924,16.3987391 11.4121724,16.7471043 11.6105091,17.3833826 C11.8095522,18.0175565 11.4639226,18.6967826 10.8391995,18.8975565 C10.2143351,19.1017739 9.54643178,18.7504435 9.34790666,18.1141652 M6.80573975,18.1761957 C6.66230818,17.7175913 6.91112382,17.2307217 7.35973597,17.0862391 C7.80886609,16.9413739 8.28869792,17.1939435 8.43179987,17.6490565 C8.57410132,18.1037391 8.32660416,18.5919478 7.87742695,18.739013 C7.428391,18.8831609 6.94855918,18.630687 6.80573975,18.1761957 M4.8407366,17.1199565 C4.72602901,16.7542304 4.9242716,16.3615783 5.2854404,16.2465565 C5.64562035,16.1285696 6.03113391,16.3333609 6.14588859,16.6989913 C6.26031364,17.0640478 6.06127055,17.4542609 5.70052554,17.571913 C5.34067522,17.6893261 4.95549128,17.4857783 4.8407366,17.1199565"/>
    <path fill="#1A4F8B" d="M25.6336061,11.3523217 C25.676692,11.1345217 25.7524574,10.9616304 25.860761,10.8306348 C26.0556132,10.6022174 26.3097498,10.4878652 26.6313172,10.4878652 C26.9645625,10.4878652 27.2314602,10.6022174 27.435683,10.8306348 C27.5526979,10.9616304 27.6300643,11.1345217 27.6653807,11.3523217 L25.633559,11.3523217 L25.6336061,11.3523217 Z M32.2464797,9.67558696 L30.9575733,9.67558696 L29.825189,11.2521739 L29.825189,8.21167826 L28.7080143,8.21167826 L28.7080143,11.0315043 C28.6294818,10.7658495 28.4994314,10.5188298 28.3255144,10.3049783 C27.9048728,9.78874348 27.3374093,9.53201304 26.6188388,9.53201304 C26.1963136,9.53201304 25.8186168,9.62728261 25.4892798,9.8184913 C25.3306857,9.90878696 25.1942703,10.0182609 25.0705688,10.1451435 L25.0705688,9.66138261 L23.7992735,9.66138261 C23.5641606,9.6831913 23.3520269,9.74292609 23.1651326,9.84073043 C23.0061619,9.92165217 22.8618356,10.0419348 22.7300349,10.2020565 C22.593337,10.3620348 22.5275543,10.5828478 22.5275543,10.864113 L22.5275543,13.7837522 L23.6454354,13.7837522 L23.6454354,11.0022826 C23.6646004,10.9384348 23.6975623,10.8786043 23.7448392,10.8242739 C23.7871717,10.780513 23.8483868,10.7406739 23.9244347,10.7023174 C23.9990229,10.6643435 24.0981442,10.6458826 24.2187379,10.6458826 L24.7233382,10.6458826 C24.5597528,10.977413 24.480079,11.3375435 24.480079,11.7250783 C24.480079,12.3401217 24.6622645,12.8422 25.0255522,13.2342304 C25.4595199,13.6994826 26.0130923,13.9319174 26.6861282,13.9319174 C27.1879504,13.9319174 27.6408947,13.7743304 28.0430776,13.4555696 C28.2914694,13.2579043 28.4933849,12.9980652 28.65358,12.6770565 L27.6343494,12.3904348 C27.565506,12.527313 27.4684095,12.6374565 27.3464503,12.7205783 C27.1475014,12.8560217 26.9336725,12.9253217 26.6988421,12.9253217 C26.3621593,12.9253217 26.0891402,12.8001609 25.8781837,12.5513217 C25.7542939,12.4088 25.6757503,12.2252913 25.637326,11.9995522 L28.7080143,11.9995522 L28.7080143,13.7886304 L29.825189,13.7886304 L29.825189,12.0821957 L30.9549363,13.7886783 L32.2464797,13.7886783 L30.8645264,11.6474087 L32.2464797,9.67558696 L32.2464797,9.67558696 Z M33.4681909,10.6044652 L33.4681909,12.5774348 C33.4681909,12.6820783 33.4937599,12.750613 33.5417902,12.786387 C33.5962716,12.8230696 33.6777347,12.8422 33.7862266,12.8422 L34.5344629,12.8422 L34.5344629,13.7886783 L33.0874333,13.7886783 C32.8288232,13.7886783 32.6368434,13.7229174 32.5105991,13.5923522 C32.4051209,13.4799609 32.3531352,13.284113 32.3531352,13.0033261 L32.3531352,8.19704348 L33.4681909,8.19704348 L33.4681909,9.65353913 L34.5344629,9.65353913 L34.5344629,10.6044652 L33.4681909,10.6044652 L33.4681909,10.6044652 Z M22.1190616,9.67558696 L22.1190616,13.7886783 L21.0031112,13.7886783 L21.0031112,9.67558696 L22.1190616,9.67558696 Z M19.2085684,12.6027826 C18.9981299,12.8816565 18.7251108,13.0203043 18.3866386,13.0203043 C18.089416,13.0203043 17.8364566,12.9101609 17.6254059,12.6898739 C17.4025361,12.4621261 17.2904183,12.1552261 17.2904183,11.7734304 C17.2904183,11.4714565 17.3645356,11.2071696 17.508391,10.9782739 C17.71963,10.6481304 18.0158638,10.4828913 18.3957738,10.4828913 C18.7083002,10.4828913 18.9647913,10.604513 19.1688257,10.847613 C19.3730956,11.0886565 19.4728762,11.3938826 19.4728762,11.7657304 C19.4728762,12.0888435 19.3848207,12.368913 19.2085684,12.6027826 L19.2085684,12.6027826 Z M19.4728762,8 L19.4728762,10.1304609 C19.2741627,9.91677391 19.0744133,9.76851304 18.883799,9.68328696 C18.6430355,9.58275652 18.3934665,9.53201304 18.1330671,9.53201304 C17.6149052,9.53201304 17.1548034,9.71982609 16.7566231,10.0962174 C16.3227025,10.5046522 16.1059542,11.0623522 16.1059542,11.768887 C16.1059542,12.3893826 16.2732125,12.8923217 16.6062224,13.2776087 C16.9836367,13.7128261 17.4850351,13.9319174 18.113337,13.9319174 C18.4422031,13.9319174 18.7352348,13.8627609 18.9874408,13.7201913 C19.1498491,13.6307565 19.312069,13.4732174 19.4728762,13.2508261 L19.4728762,13.7886783 L20.5899567,13.7886783 L20.5899567,8 L19.4728762,8 L19.4728762,8 Z M22.1190616,8.60605217 L22.1190616,9.47208696 L21.0031112,9.47208696 L21.0031112,8.60605217 L22.1190616,8.60605217 L22.1190616,8.60605217 Z"/>
    <path fill="#2D9E42" d="M13.0476502,16.9461565 C13.4998411,16.8007652 13.7503048,16.311313 13.6066849,15.8508913 C13.4620761,15.3902783 12.9779592,15.1363217 12.5262863,15.2844391 C12.0744721,15.4305478 11.8247618,15.9198087 11.968005,16.380613 C12.1125667,16.840987 12.5959302,17.0945609 13.0476502,16.9461565 L13.0476502,16.9461565 Z M10.3314442,12.5948435 C10.1115409,12.8780217 9.83367164,13.0203043 9.49703595,13.0203043 C9.21775405,13.0203043 8.97849737,12.9168565 8.77822998,12.7117783 C8.54156317,12.4719783 8.42370065,12.1552261 8.42370065,11.7656826 C8.42370065,11.4374522 8.51057894,11.1504957 8.6847593,10.9052913 C8.88116544,10.6299087 9.15484381,10.4921696 9.50574732,10.4921696 C9.86790498,10.4921696 10.1527433,10.6273261 10.3610158,10.900413 C10.5324179,11.1264391 10.618119,11.4030652 10.618119,11.7297652 C10.618119,12.0568 10.5220584,12.3457652 10.3314442,12.5948435 L10.3314442,12.5948435 Z M6.08829935,12.5554826 C5.8796502,12.8654435 5.58162708,13.0203043 5.19427707,13.0203043 C4.88019676,13.0203043 4.62243431,12.9101609 4.41924742,12.6898739 C4.21723775,12.4694435 4.11566786,12.1666565 4.11566786,11.7825174 C4.11566786,11.4583522 4.18912592,11.184787 4.3341585,10.9650261 C4.54822283,10.643587 4.8464814,10.4828913 5.2281337,10.4828913 C5.53877654,10.4828913 5.79729241,10.5997783 6.00240992,10.8350826 C6.20795123,11.0688087 6.31027454,11.3821174 6.31027454,11.7734304 C6.31027454,12.0754522 6.2363456,12.3354826 6.08829935,12.5554826 L6.08829935,12.5554826 Z M14.5821232,9.67558696 L13.6364919,12.1210783 L12.8147976,9.67558696 L10.6004608,9.67558696 L10.6004608,10.1962217 C10.4382409,10.0024783 10.2816716,9.85909565 10.1302821,9.76616957 C9.87958293,9.61264783 9.59394408,9.53598261 9.27449569,9.53598261 C8.88926466,9.53598261 8.54339962,9.63187391 8.23520538,9.82274783 C7.93021316,10.0082174 7.69444103,10.2584435 7.52925457,10.5750522 C7.46898129,10.6876826 7.41906748,10.8060522 7.37715871,10.9252826 C7.23466891,10.492887 6.96763002,10.1418913 6.57533572,9.87497391 C6.24218457,9.64598261 5.86712466,9.53196522 5.4504856,9.53196522 C5.10005297,9.53196522 4.79882783,9.60896522 4.54822283,9.76172174 C4.39975279,9.85187391 4.25561488,9.99195652 4.11566786,10.1834522 L4.11566786,9.67558696 L3,9.67558696 L3,15.423087 L4.11566786,15.423087 L4.11566786,13.3410739 C4.4521152,13.7346826 4.90463569,13.9319174 5.47195796,13.9319174 C5.9427017,13.9319174 6.34921673,13.8062783 6.69126761,13.5504087 C7.0119403,13.3129522 7.23608156,13.0034217 7.36609292,12.6230609 C7.44177983,12.8448978 7.55485882,13.0516833 7.70028001,13.2341826 C8.07698802,13.6995304 8.57424259,13.9319652 9.19322094,13.9319652 C9.76355686,13.9319652 10.2331705,13.6972826 10.6004608,13.2246174 L10.6004608,13.7886783 L11.7170704,13.7886783 L11.7170704,9.92021739 L13.051276,13.6951304 L12.6583696,14.8338696 C13.0586218,14.7466348 13.4643834,14.8912609 13.7258659,15.1885 L15.7675762,9.67558696 L14.5821703,9.67558696 L14.5821232,9.67558696 Z"/>
  </g>
</svg>
